<svg width="25" height="24" viewBox="0 0 25 24" fill="none" xmlns="http://www.w3.org/2000/svg">
<path d="M12.6666 20.032C10.4693 19.9893 4.1333 14.272 4.1333 8.83201C4.1333 6.22401 6.26663 3.94135 8.71997 3.94135C10.6666 3.94135 11.9733 5.28535 12.6666 6.26135C13.36 5.28535 14.6666 3.94135 16.6133 3.94135C19.056 3.94135 21.2 6.22401 21.2 8.83201C21.2 14.2453 14.8746 19.9627 12.6666 20.032ZM8.71997 5.24268C6.95463 5.24268 5.40263 6.93335 5.40263 8.85868C5.40263 13.7333 11.376 18.704 12.6666 18.7573C13.9573 18.704 19.9306 13.7333 19.9306 8.85868C19.9306 6.93335 18.3786 5.24268 16.6133 5.24268C14.48 5.24268 13.264 7.73335 13.2533 7.76001C13.1988 7.86894 13.1151 7.96054 13.0114 8.02456C12.9078 8.08858 12.7884 8.12248 12.6666 8.12248C12.5448 8.12248 12.4254 8.08858 12.3218 8.02456C12.2182 7.96054 12.1345 7.86894 12.08 7.76001C12.0693 7.73335 10.8693 5.24268 8.71997 5.24268Z" fill="#536471"/>
</svg>
