<svg width="32" height="32" viewBox="0 0 32 32" fill="none" xmlns="http://www.w3.org/2000/svg">
<path d="M10.5885 17.7564C11.5585 17.7564 12.3449 16.97 12.3449 16C12.3449 15.0299 11.5585 14.2435 10.5885 14.2435C9.61842 14.2435 8.83203 15.0299 8.83203 16C8.83203 16.97 9.61842 17.7564 10.5885 17.7564Z" fill="#536471"/>
<path d="M16 17.7564C16.97 17.7564 17.7564 16.97 17.7564 16C17.7564 15.0299 16.97 14.2435 16 14.2435C15.0299 14.2435 14.2435 15.0299 14.2435 16C14.2435 16.97 15.0299 17.7564 16 17.7564Z" fill="#536471"/>
<path d="M21.4116 17.7564C22.3817 17.7564 23.168 16.97 23.168 16C23.168 15.0299 22.3817 14.2435 21.4116 14.2435C20.4415 14.2435 19.6552 15.0299 19.6552 16C19.6552 16.97 20.4415 17.7564 21.4116 17.7564Z" fill="#536471"/>
</svg>
