<svg width="24" height="24" viewBox="0 0 24 24" fill="none" xmlns="http://www.w3.org/2000/svg">
<path d="M13.7653 3.62134H10.2453C9.37259 3.61137 8.50668 3.77564 7.69827 4.10453C6.88986 4.43342 6.15521 4.92031 5.53733 5.53669C4.91946 6.15308 4.4308 6.88655 4.09996 7.69417C3.76912 8.50178 3.60276 9.36729 3.61062 10.24C3.61062 13.7173 6.31995 16.3573 9.95195 16.5013V19.7333C9.95639 19.8538 9.99125 19.9713 10.0533 20.0747C10.1099 20.1653 10.1884 20.2402 10.2816 20.2924C10.3749 20.3447 10.4798 20.3725 10.5866 20.3733C10.7102 20.3732 10.831 20.3361 10.9333 20.2667C11.1573 20.1227 16.432 16.752 17.8026 15.5893C18.5886 14.9358 19.226 14.1219 19.6721 13.2021C20.1182 12.2823 20.3627 11.2779 20.3893 10.256C20.3993 9.38286 20.2348 8.51651 19.9056 7.70774C19.5764 6.89898 19.089 6.16408 18.4721 5.54614C17.8551 4.92819 17.121 4.43964 16.3128 4.10912C15.5045 3.7786 14.6384 3.61276 13.7653 3.62134ZM16.9653 14.64C16 15.4667 12.8479 17.5307 11.2266 18.5813V15.8773C11.2273 15.7935 11.2114 15.7104 11.1798 15.6328C11.1483 15.5552 11.1016 15.4846 11.0426 15.4251C10.9836 15.3656 10.9134 15.3184 10.8361 15.2862C10.7587 15.2539 10.6757 15.2373 10.592 15.2373H10.2506C7.14128 15.2373 4.88528 13.136 4.88528 10.24C4.88032 9.53824 5.01488 8.84248 5.28115 8.19317C5.54741 7.54386 5.94008 6.95394 6.43631 6.4577C6.93255 5.96146 7.52247 5.5688 8.17178 5.30254C8.82109 5.03627 9.51685 4.90171 10.2186 4.90667H13.7386C14.4404 4.90171 15.1361 5.03627 15.7855 5.30254C16.4348 5.5688 17.0247 5.96146 17.5209 6.4577C18.0172 6.95394 18.4098 7.54386 18.6761 8.19317C18.9424 8.84248 19.0769 9.53824 19.0719 10.24C19.059 11.0804 18.8656 11.9081 18.5049 12.6673C18.1442 13.4264 17.6246 14.0992 16.9813 14.64H16.9653Z" fill="#536471"/>
</svg>
