<svg width="25" height="24" viewBox="0 0 25 24" fill="none" xmlns="http://www.w3.org/2000/svg">
<path d="M23.1814 14.8853C23.1224 14.8258 23.0522 14.7786 22.9749 14.7463C22.8975 14.7141 22.8146 14.6975 22.7308 14.6975C22.647 14.6975 22.564 14.7141 22.4867 14.7463C22.4093 14.7786 22.3391 14.8258 22.2801 14.8853L20.1201 17.0666V7.79729C20.1201 6.9486 19.783 6.13466 19.1829 5.53455C18.5827 4.93443 17.7688 4.59729 16.9201 4.59729H11.2881C11.2048 4.59729 11.1222 4.61371 11.0452 4.6456C10.9682 4.6775 10.8983 4.72425 10.8393 4.78318C10.7804 4.84211 10.7336 4.91208 10.7018 4.98908C10.6699 5.06608 10.6534 5.14861 10.6534 5.23196C10.6534 5.3153 10.6699 5.39783 10.7018 5.47483C10.7336 5.55183 10.7804 5.6218 10.8393 5.68073C10.8983 5.73967 10.9682 5.78642 11.0452 5.81831C11.1222 5.85021 11.2048 5.86662 11.2881 5.86662H16.9308C17.4386 5.86662 17.9256 6.06835 18.2846 6.42742C18.6437 6.78649 18.8454 7.27349 18.8454 7.78129V17.0666L16.6854 14.9066C16.5629 14.8289 16.4176 14.7951 16.2733 14.8108C16.129 14.8265 15.9943 14.8908 15.8914 14.9931C15.7885 15.0954 15.7234 15.2297 15.7068 15.3739C15.6902 15.5181 15.7231 15.6636 15.8001 15.7866L19.0481 19.0346C19.1668 19.1537 19.3279 19.2209 19.4961 19.2213C19.6657 19.22 19.8281 19.1531 19.9494 19.0346L23.1974 15.7866C23.3129 15.664 23.3759 15.5011 23.3729 15.3327C23.3699 15.1643 23.3012 15.0037 23.1814 14.8853Z" fill="#536471"/>
<path d="M13.3841 18.1333H7.7361C7.2283 18.1333 6.74129 17.9316 6.38223 17.5725C6.02316 17.2134 5.82143 16.7264 5.82143 16.2186V6.93329L7.98677 9.09329C8.04531 9.15263 8.11506 9.19975 8.19197 9.23191C8.26888 9.26407 8.35141 9.28063 8.43477 9.28063C8.51813 9.28063 8.60066 9.26407 8.67756 9.23191C8.75447 9.19975 8.82422 9.15263 8.88277 9.09329C8.94227 9.03429 8.9895 8.96409 9.02173 8.88674C9.05396 8.80939 9.07055 8.72642 9.07055 8.64262C9.07055 8.55883 9.05396 8.47586 9.02173 8.39851C8.9895 8.32116 8.94227 8.25096 8.88277 8.19196L5.63477 4.96529C5.51423 4.84769 5.3525 4.78186 5.1841 4.78186C5.0157 4.78186 4.85397 4.84769 4.73343 4.96529L1.48543 8.21329C1.36783 8.33383 1.302 8.49556 1.302 8.66396C1.302 8.83236 1.36783 8.99409 1.48543 9.11462C1.54443 9.17413 1.61464 9.22135 1.69199 9.25359C1.76934 9.28582 1.8523 9.30241 1.9361 9.30241C2.0199 9.30241 2.10286 9.28582 2.18021 9.25359C2.25756 9.22135 2.32776 9.17413 2.38677 9.11462L4.54677 6.93329V16.2026C4.54677 17.0513 4.88391 17.8652 5.48402 18.4654C6.08414 19.0655 6.89807 19.4026 7.74677 19.4026H13.3841C13.5524 19.4026 13.7139 19.3358 13.8329 19.2167C13.9519 19.0977 14.0188 18.9363 14.0188 18.768C14.0188 18.5996 13.9519 18.4382 13.8329 18.3192C13.7139 18.2002 13.5524 18.1333 13.3841 18.1333Z" fill="#536471"/>
</svg>
