<svg width="16" height="16" viewBox="0 0 16 16" fill="none" xmlns="http://www.w3.org/2000/svg">
<path d="M14.9998 8.33462C15.0055 7.84197 14.875 7.35733 14.6226 6.9342C14.3703 6.51107 14.0059 6.16591 13.5697 5.93684C13.6745 5.63632 13.7277 5.32025 13.7271 5.002C13.7421 4.31232 13.4828 3.64489 13.0062 3.14616C12.5296 2.64743 11.8747 2.35815 11.185 2.3418C10.881 2.34009 10.5795 2.39574 10.2961 2.50581C10.103 2.05695 9.78267 1.67453 9.37458 1.40582C8.9665 1.13711 8.48861 0.993896 8 0.993896C7.51139 0.993896 7.0335 1.13711 6.62541 1.40582C6.21733 1.67453 5.89695 2.05695 5.7039 2.50581C5.42045 2.39604 5.11894 2.34041 4.81498 2.3418C4.12534 2.35815 3.47035 2.64743 2.99376 3.14616C2.51717 3.64489 2.25791 4.31232 2.27287 5.002C2.2723 5.32025 2.32554 5.63632 2.43032 5.93684C2.00969 6.16405 1.65621 6.4979 1.40536 6.90488C1.15452 7.31186 1.01512 7.77765 1.00116 8.25553C0.987205 8.7334 1.09918 9.20654 1.32584 9.62747C1.55251 10.0484 1.8859 10.4023 2.29255 10.6537C2.27936 10.768 2.27279 10.883 2.27287 10.9981C2.25703 11.6883 2.5159 12.3566 2.99258 12.8561C3.46927 13.3555 4.12476 13.6452 4.81498 13.6616C5.11914 13.6618 5.42065 13.6051 5.7039 13.4943C5.89695 13.9431 6.21733 14.3256 6.62541 14.5943C7.0335 14.863 7.51139 15.0062 8 15.0062C8.48861 15.0062 8.9665 14.863 9.37458 14.5943C9.78267 14.3256 10.103 13.9431 10.2961 13.4943C10.5793 13.6054 10.8808 13.6622 11.185 13.6616C11.8752 13.6452 12.5307 13.3555 13.0074 12.8561C13.4841 12.3566 13.743 11.6883 13.7271 10.9981C13.7261 10.8829 13.7185 10.7679 13.7042 10.6537C14.1024 10.4123 14.4312 10.0718 14.6583 9.66526C14.8854 9.25876 15.0031 8.80025 14.9998 8.33462ZM10.5946 6.11396L7.70807 10.4405C7.66207 10.5088 7.60007 10.5648 7.52747 10.6037C7.45486 10.6426 7.37385 10.6631 7.29149 10.6635C7.19258 10.6637 7.09573 10.6352 7.01268 10.5815L6.93723 10.5192L5.32996 8.90864C5.23722 8.81472 5.18521 8.68803 5.18521 8.55603C5.18521 8.42403 5.23722 8.29734 5.32996 8.20341C5.37604 8.1567 5.43094 8.11961 5.49147 8.0943C5.55201 8.06898 5.61696 8.05594 5.68258 8.05594C5.74819 8.05594 5.81315 8.06898 5.87368 8.0943C5.93422 8.11961 5.98912 8.1567 6.03519 8.20341L7.21276 9.38098L9.76143 5.55962C9.79519 5.49924 9.84106 5.44649 9.89617 5.40468C9.95128 5.36288 10.0144 5.33291 10.0817 5.31667C10.1489 5.30043 10.2188 5.29827 10.2869 5.31032C10.355 5.32236 10.4199 5.34836 10.4775 5.38668C10.5351 5.425 10.5841 5.47481 10.6216 5.53298C10.659 5.59116 10.684 5.65644 10.695 5.72473C10.706 5.79303 10.7027 5.86286 10.6855 5.92984C10.6682 5.99682 10.6372 6.05951 10.5946 6.11396Z" fill="#1D9BF0"/>
</svg>
