<svg width="24" height="24" viewBox="0 0 24 24" fill="none" xmlns="http://www.w3.org/2000/svg">
<path d="M16.5333 8.22401L12.432 4.14935C12.3755 4.09226 12.3082 4.04695 12.234 4.01602C12.1599 3.9851 12.0803 3.96918 12 3.96918C11.9197 3.96918 11.8401 3.9851 11.766 4.01602C11.6918 4.04695 11.6245 4.09226 11.568 4.14935L7.46667 8.22401C7.35897 8.34011 7.30034 8.49336 7.30307 8.6517C7.30579 8.81003 7.36966 8.96118 7.48129 9.0735C7.59292 9.18582 7.74367 9.25061 7.90199 9.25431C8.0603 9.25801 8.21391 9.20033 8.33067 9.09334L11.3653 6.05868V14.368C11.3653 14.5307 11.43 14.6867 11.545 14.8017C11.66 14.9167 11.816 14.9813 11.9787 14.9813C12.1413 14.9813 12.2973 14.9167 12.4124 14.8017C12.5274 14.6867 12.592 14.5307 12.592 14.368V6.05868L15.6267 9.09334C15.6834 9.14992 15.7508 9.19462 15.825 9.22484C15.8991 9.25506 15.9786 9.27019 16.0587 9.26934C16.22 9.26873 16.3748 9.20565 16.4907 9.09334C16.5508 9.03922 16.5996 8.97373 16.6343 8.90066C16.6691 8.82758 16.689 8.74836 16.6929 8.66756C16.6969 8.58675 16.6848 8.50596 16.6574 8.42984C16.6301 8.35372 16.5879 8.28376 16.5333 8.22401Z" fill="#536471"/>
<path d="M18.288 20.0321H5.71198C5.21642 20.0306 4.74164 19.8328 4.39173 19.4819C4.04181 19.131 3.84532 18.6556 3.84532 18.1601V13.5521C3.83737 13.4671 3.84724 13.3814 3.87432 13.3004C3.90139 13.2194 3.94506 13.145 4.00254 13.0819C4.06002 13.0188 4.13004 12.9684 4.20812 12.9339C4.2862 12.8994 4.37062 12.8816 4.45598 12.8816C4.54135 12.8816 4.62577 12.8994 4.70385 12.9339C4.78193 12.9684 4.85195 13.0188 4.90943 13.0819C4.96691 13.145 5.01058 13.2194 5.03765 13.3004C5.06473 13.3814 5.0746 13.4671 5.06665 13.5521V18.1601C5.06665 18.3317 5.13447 18.4964 5.25534 18.6183C5.37621 18.7401 5.54034 18.8093 5.71198 18.8107H18.288C18.4596 18.8093 18.6238 18.7401 18.7446 18.6183C18.8655 18.4964 18.9333 18.3317 18.9333 18.1601V13.5521C18.9254 13.4671 18.9352 13.3814 18.9623 13.3004C18.9894 13.2194 19.0331 13.145 19.0905 13.0819C19.148 13.0188 19.218 12.9684 19.2961 12.9339C19.3742 12.8994 19.4586 12.8816 19.544 12.8816C19.6293 12.8816 19.7138 12.8994 19.7918 12.9339C19.8699 12.9684 19.9399 13.0188 19.9974 13.0819C20.0549 13.145 20.0986 13.2194 20.1257 13.3004C20.1527 13.3814 20.1626 13.4671 20.1547 13.5521V18.1601C20.1547 18.6556 19.9582 19.131 19.6082 19.4819C19.2583 19.8328 18.7835 20.0306 18.288 20.0321Z" fill="#536471"/>
</svg>
