<svg width="24" height="24" viewBox="0 0 24 24" fill="none" xmlns="http://www.w3.org/2000/svg">
<path d="M4.14531 20.5782L11.9578 3L19.8522 20.5771C19.9414 20.7756 19.7962 21 19.5786 21H18.1741C18.0449 21 17.9303 20.9174 17.8894 20.7949L11.9578 3L6.0262 20.7949C5.98537 20.9174 5.87073 21 5.7416 21H4.41945C4.20236 21 4.05714 20.7765 4.14531 20.5782Z" fill="#536471"/>
<path d="M11.9578 3L4.14531 20.5782C4.05714 20.7765 4.20236 21 4.41945 21H5.7416C5.87073 21 5.98537 20.9174 6.0262 20.7949L11.9578 3ZM11.9578 3L19.8522 20.5771C19.9414 20.7756 19.7962 21 19.5786 21H18.1741C18.0449 21 17.9303 20.9174 17.8894 20.7949L11.9578 3Z" stroke="#536471" stroke-width="2" stroke-linecap="round" stroke-linejoin="round"/>
<path d="M15.9578 14.5H7.95782L6.95782 16H16.9578L15.9578 14.5Z" stroke="#536471" stroke-width="2" stroke-linecap="round" stroke-linejoin="round"/>
</svg>
